# xmcd
#
# Track frame offsets:
#	150
#	14740
#	40671
#	55254
#	90206
#	112757
#	142765
#	159416
#
# Disc length: 2363 seconds
#
# Revision: 2
# Processed by: cddbd v1.5.2PL0 Copyright (c) Steve Scherf et al.
# Submitted via: audiograbber 1.83.01
#
DISCID=52093908
DTITLE=Bernd Haake Bluesband - 8 Richtige
DYEAR=1984
DGENRE=Blues
TTITLE0=Ich krieg den Hals nicht voll
TTITLE1=Autobahn Blues
TTITLE2=Soul Limbo
TTITLE3=Lotto Blues
TTITLE4=Edeka Man
TTITLE5=Die Luft ist raus
TTITLE6=Walkman Blues
TTITLE7=Verkohlt
EXTD=
EXTT0=
EXTT1=
EXTT2=
EXTT3=
EXTT4=
EXTT5=
EXTT6=
EXTT7=
PLAYORDER=
